<?xml version="1.0" encoding="UTF-8"?>
<!DOCTYPE svg PUBLIC "-//W3C//DTD SVG 1.1//EN" "http://www.w3.org/Graphics/SVG/1.1/DTD/svg11.dtd">
<svg xmlns="http://www.w3.org/2000/svg" version="1.1" width="1024px" height="1024px" style="shape-rendering:geometricPrecision; text-rendering:geometricPrecision; image-rendering:optimizeQuality; fill-rule:evenodd; clip-rule:evenodd" xmlns:xlink="http://www.w3.org/1999/xlink">
<g><path style="opacity:1" fill="#fee5ac" d="M -0.5,-0.5 C 340.833,-0.5 682.167,-0.5 1023.5,-0.5C 1023.5,340.833 1023.5,682.167 1023.5,1023.5C 682.167,1023.5 340.833,1023.5 -0.5,1023.5C -0.5,682.167 -0.5,340.833 -0.5,-0.5 Z"/></g>
<g><path style="opacity:1" fill="#130502" d="M 396.5,93.5 C 407.5,93.5 418.5,93.5 429.5,93.5C 429.5,96.1667 429.5,98.8333 429.5,101.5C 425.818,101.665 422.152,101.499 418.5,101C 421.817,100.502 425.15,100.335 428.5,100.5C 428.5,98.5 428.5,96.5 428.5,94.5C 418.167,94.5 407.833,94.5 397.5,94.5C 397.5,96.5 397.5,98.5 397.5,100.5C 400.85,100.335 404.183,100.502 407.5,101C 403.848,101.499 400.182,101.665 396.5,101.5C 396.5,98.8333 396.5,96.1667 396.5,93.5 Z"/></g>
<g><path style="opacity:1" fill="#040100" d="M 859.5,93.5 C 859.631,94.2389 859.464,94.9056 859,95.5C 856.619,94.565 854.119,94.2317 851.5,94.5C 851.5,106.833 851.5,119.167 851.5,131.5C 854.5,131.5 857.5,131.5 860.5,131.5C 857.375,132.479 854.042,132.813 850.5,132.5C 850.5,119.5 850.5,106.5 850.5,93.5C 853.5,93.5 856.5,93.5 859.5,93.5 Z"/></g>
<g><path style="opacity:1" fill="#3a2317" d="M 222.5,93.5 C 230.174,93.3336 237.841,93.5003 245.5,94C 253.919,95.6687 256.419,100.502 253,108.5C 251.833,109.667 250.667,110.833 249.5,112C 255.234,115.18 257.067,120.013 255,126.5C 253.062,129.106 250.562,130.939 247.5,132C 239.173,132.5 230.84,132.666 222.5,132.5C 222.5,119.5 222.5,106.5 222.5,93.5 Z"/></g>
<g><path style="opacity:1" fill="#482e1e" d="M 396.5,93.5 C 396.5,96.1667 396.5,98.8333 396.5,101.5C 400.182,101.665 403.848,101.499 407.5,101C 404.183,100.502 400.85,100.335 397.5,100.5C 397.5,98.5 397.5,96.5 397.5,94.5C 407.833,94.5 418.167,94.5 428.5,94.5C 428.5,96.5 428.5,98.5 428.5,100.5C 425.15,100.335 421.817,100.502 418.5,101C 422.152,101.499 425.818,101.665 429.5,101.5C 425.702,102.483 421.702,102.817 417.5,102.5C 416.501,111.416 416.168,121.082 416.5,131.5C 414.167,131.5 411.833,131.5 409.5,131.5C 409.666,121.828 409.5,112.161 409,102.5C 408.5,112.494 408.334,122.494 408.5,132.5C 407.506,122.681 407.173,112.681 407.5,102.5C 403.5,102.5 399.5,102.5 395.5,102.5C 395.19,99.2869 395.523,96.2869 396.5,93.5 Z"/></g>
<g><path style="opacity:1" fill="#3c2418" d="M 461.5,108.5 C 462.486,104.03 462.819,99.3633 462.5,94.5C 465.167,94.5 467.833,94.5 470.5,94.5C 470.5,106.833 470.5,119.167 470.5,131.5C 467.833,131.5 465.167,131.5 462.5,131.5C 462.834,126.063 462.501,121.396 461.5,117.5C 456.167,117.5 450.833,117.5 445.5,117.5C 445.5,122.5 445.5,127.5 445.5,132.5C 442.167,132.5 438.833,132.5 435.5,132.5C 435.5,119.5 435.5,106.5 435.5,93.5C 438.833,93.5 442.167,93.5 445.5,93.5C 445.5,98.5 445.5,103.5 445.5,108.5C 450.833,108.5 456.167,108.5 461.5,108.5 Z"/></g>
<g><path style="opacity:1" fill="#3d2518" d="M 489.5,105.5 C 494.651,106.327 499.984,106.827 505.5,107C 513.741,112.051 515.575,118.885 511,127.5C 508.459,130.354 505.292,132.021 501.5,132.5C 494.687,131.509 487.687,131.175 480.5,131.5C 480.5,119.167 480.5,106.833 480.5,94.5C 483.167,94.5 485.833,94.5 488.5,94.5C 488.185,98.3714 488.518,102.038 489.5,105.5 Z"/></g>
<g><path style="opacity:1" fill="#362016" d="M 518.5,93.5 C 521.833,93.5 525.167,93.5 528.5,93.5C 528.5,106.5 528.5,119.5 528.5,132.5C 525.167,132.5 521.833,132.5 518.5,132.5C 518.5,119.5 518.5,106.5 518.5,93.5 Z"/></g>
<g><path style="opacity:1" fill="#3d2418" d="M 271.5,132.5 C 271.666,124.493 271.5,116.493 271,108.5C 270.5,116.159 270.334,123.826 270.5,131.5C 268.167,131.5 265.833,131.5 263.5,131.5C 263.5,119.167 263.5,106.833 263.5,94.5C 267.226,94.1774 270.893,94.5108 274.5,95.5C 275.194,97.8124 276.194,99.1457 277.5,99.5C 280.303,105.106 283.136,110.773 286,116.5C 289.442,109.283 292.609,101.95 295.5,94.5C 299.783,93.5078 304.116,93.1744 308.5,93.5C 308.5,106.5 308.5,119.5 308.5,132.5C 305.167,132.5 301.833,132.5 298.5,132.5C 298.666,125.159 298.5,117.826 298,110.5C 294.671,116.158 292.171,122.158 290.5,128.5C 287.428,128.817 284.428,128.484 281.5,127.5C 278.94,121.379 276.106,115.379 273,109.5C 272.829,117.344 272.329,125.011 271.5,132.5 Z"/></g>
<g><path style="opacity:1" fill="#060100" d="M 489.5,105.5 C 488.518,102.038 488.185,98.3714 488.5,94.5C 485.833,94.5 483.167,94.5 480.5,94.5C 480.5,106.833 480.5,119.167 480.5,131.5C 487.687,131.175 494.687,131.509 501.5,132.5C 494.167,132.5 486.833,132.5 479.5,132.5C 479.5,119.5 479.5,106.5 479.5,93.5C 482.833,93.5 486.167,93.5 489.5,93.5C 489.5,97.5 489.5,101.5 489.5,105.5 Z"/></g>
<g><path style="opacity:1" fill="#0f0301" d="M 875.5,131.5 C 876.329,124.011 876.829,116.344 877,108.5C 877.5,116.159 877.666,123.826 877.5,131.5C 879.833,131.5 882.167,131.5 884.5,131.5C 884.5,119.167 884.5,106.833 884.5,94.5C 880.838,94.0339 877.505,94.7006 874.5,96.5C 874.414,95.5041 874.748,94.6708 875.5,94C 878.817,93.5017 882.15,93.335 885.5,93.5C 885.5,106.5 885.5,119.5 885.5,132.5C 881.958,132.813 878.625,132.479 875.5,131.5 Z"/></g>
<g><path style="opacity:1" fill="#392216" d="M 369.5,93.5 C 379.141,91.5392 386.641,94.5392 392,102.5C 392.49,103.793 392.657,105.127 392.5,106.5C 389.61,106.278 386.943,106.945 384.5,108.5C 379.91,100.01 374.41,99.3438 368,106.5C 366.777,112.379 367.611,117.879 370.5,123C 376.83,126.146 381.496,124.646 384.5,118.5C 387.554,119.347 390.554,120.347 393.5,121.5C 390.352,129.33 384.519,133.33 376,133.5C 366.476,133.304 360.476,128.637 358,119.5C 355.214,107.632 359.047,98.9652 369.5,93.5 Z"/></g>
<g><path style="opacity:1" fill="#100402" d="M 277.5,99.5 C 276.194,99.1457 275.194,97.8124 274.5,95.5C 270.893,94.5108 267.226,94.1774 263.5,94.5C 263.5,106.833 263.5,119.167 263.5,131.5C 265.833,131.5 268.167,131.5 270.5,131.5C 270.334,123.826 270.5,116.159 271,108.5C 271.5,116.493 271.666,124.493 271.5,132.5C 268.5,132.5 265.5,132.5 262.5,132.5C 262.5,119.5 262.5,106.5 262.5,93.5C 266.884,93.1744 271.217,93.5078 275.5,94.5C 276.456,96.0754 277.123,97.742 277.5,99.5 Z"/></g>
<g><path style="opacity:1" fill="#392216" d="M 572.5,115.5 C 563.5,115.5 554.5,115.5 545.5,115.5C 545.263,116.791 545.596,117.791 546.5,118.5C 547.203,120.716 548.536,122.549 550.5,124C 553.833,124.667 557.167,124.667 560.5,124C 561.618,122.926 562.618,121.76 563.5,120.5C 574.155,121.249 574.821,124.749 565.5,131C 545.027,136.527 535.194,128.694 536,107.5C 542.222,92.9003 552.389,89.4003 566.5,97C 571.394,102.182 573.394,108.349 572.5,115.5 Z"/></g>
<g><path style="opacity:1" fill="#382217" d="M 809.5,93.5 C 812.833,93.5 816.167,93.5 819.5,93.5C 819.173,98.544 819.506,103.544 820.5,108.5C 822.753,107.747 824.587,106.414 826,104.5C 827.97,101.032 830.136,97.6985 832.5,94.5C 836.167,93.1667 839.833,93.1667 843.5,94.5C 839.167,100.5 834.833,106.5 830.5,112.5C 834.585,119.418 839.252,125.918 844.5,132C 840.459,132.827 836.459,132.66 832.5,131.5C 829.5,126.833 826.5,122.167 823.5,117.5C 822.311,116.571 820.978,116.238 819.5,116.5C 819.5,121.833 819.5,127.167 819.5,132.5C 816.167,132.5 812.833,132.5 809.5,132.5C 809.5,119.5 809.5,106.5 809.5,93.5 Z"/></g>
<g><path style="opacity:1" fill="#3e2619" d="M 859.5,93.5 C 860.329,100.989 860.829,108.656 861,116.5C 865.275,109.595 869.775,102.928 874.5,96.5C 877.505,94.7006 880.838,94.0339 884.5,94.5C 884.5,106.833 884.5,119.167 884.5,131.5C 882.167,131.5 879.833,131.5 877.5,131.5C 877.666,123.826 877.5,116.159 877,108.5C 876.829,116.344 876.329,124.011 875.5,131.5C 875.666,124.159 875.5,116.826 875,109.5C 870.888,117.413 866.055,124.746 860.5,131.5C 857.5,131.5 854.5,131.5 851.5,131.5C 851.5,119.167 851.5,106.833 851.5,94.5C 854.119,94.2317 856.619,94.565 859,95.5C 859.464,94.9056 859.631,94.2389 859.5,93.5 Z"/></g>
<g><path style="opacity:1" fill="#3a2317" d="M 190.5,93.5 C 208.117,91.2904 216.617,98.9571 216,116.5C 212.443,130.533 203.609,135.699 189.5,132C 181.619,128.415 177.619,122.249 177.5,113.5C 177.866,104.067 182.199,97.4004 190.5,93.5 Z"/></g>
<g><path style="opacity:1" fill="#fbe5b0" d="M 193.5,101.5 C 204.053,101.545 208.22,106.878 206,117.5C 203.747,124.106 199.247,126.273 192.5,124C 185.747,116.075 186.08,108.575 193.5,101.5 Z"/></g>
<g><path style="opacity:1" fill="#3d2518" d="M 327.5,93.5 C 344.621,91.621 352.621,99.2877 351.5,116.5C 342.833,116.5 334.167,116.5 325.5,116.5C 325.269,119.785 326.603,122.285 329.5,124C 334.84,125.534 339.34,124.367 343,120.5C 345.737,121.56 348.57,122.394 351.5,123C 345.685,132.549 337.352,135.549 326.5,132C 320.836,129.668 317.336,125.501 316,119.5C 313.116,107.618 316.949,98.9518 327.5,93.5 Z"/></g>
<g><path style="opacity:1" fill="#fcebb8" d="M 550.5,101.5 C 553.978,101.184 557.312,101.684 560.5,103C 561.861,104.584 562.528,106.418 562.5,108.5C 557.167,108.5 551.833,108.5 546.5,108.5C 546.961,105.697 548.295,103.363 550.5,101.5 Z"/></g>
<g><path style="opacity:1" fill="#fae9b9" d="M 329.5,101.5 C 332.978,101.184 336.312,101.684 339.5,103C 340.861,104.584 341.528,106.418 341.5,108.5C 336.125,108.828 330.792,108.495 325.5,107.5C 326.467,105.21 327.8,103.21 329.5,101.5 Z"/></g>
<g><path style="opacity:1" fill="#f8e4af" d="M 232.5,100.5 C 235.518,100.335 238.518,100.502 241.5,101C 245.037,102.826 245.371,105.16 242.5,108C 239.183,108.498 235.85,108.665 232.5,108.5C 232.5,105.833 232.5,103.167 232.5,100.5 Z"/></g>
<g><path style="opacity:1" fill="#3a2317" d="M 650.5,93.5 C 668.648,92.1477 676.815,100.481 675,118.5C 671.899,129.976 664.399,134.809 652.5,133C 639.3,127.763 634.8,118.263 639,104.5C 641.437,99.2262 645.271,95.5595 650.5,93.5 Z"/></g>
<g><path style="opacity:1" fill="#fce5af" d="M 653.5,101.5 C 658.635,100.426 662.468,102.093 665,106.5C 665.667,110.5 665.667,114.5 665,118.5C 662.646,124.095 658.479,125.928 652.5,124C 648.143,119.75 646.643,114.584 648,108.5C 648.967,105.379 650.8,103.046 653.5,101.5 Z"/></g>
<g><path style="opacity:1" fill="#382216" d="M 693.5,93.5 C 710.642,91.6425 718.642,99.3092 717.5,116.5C 708.833,116.5 700.167,116.5 691.5,116.5C 693.103,124.157 697.769,126.657 705.5,124C 706.685,122.647 708.019,121.48 709.5,120.5C 712.391,121.006 715.058,122.006 717.5,123.5C 713.446,130.482 707.28,133.815 699,133.5C 690.01,132.842 684.344,128.175 682,119.5C 679.116,107.618 682.949,98.9518 693.5,93.5 Z"/></g>
<g><path style="opacity:1" fill="#fbe9b5" d="M 695.5,101.5 C 698.978,101.184 702.312,101.684 705.5,103C 706.861,104.584 707.528,106.418 707.5,108.5C 702.125,108.828 696.792,108.495 691.5,107.5C 692.467,105.21 693.8,103.21 695.5,101.5 Z"/></g>
<g><path style="opacity:1" fill="#080201" d="M 461.5,117.5 C 462.501,121.396 462.834,126.063 462.5,131.5C 465.167,131.5 467.833,131.5 470.5,131.5C 470.5,119.167 470.5,106.833 470.5,94.5C 467.833,94.5 465.167,94.5 462.5,94.5C 462.819,99.3633 462.486,104.03 461.5,108.5C 461.5,103.5 461.5,98.5 461.5,93.5C 464.833,93.5 468.167,93.5 471.5,93.5C 471.5,106.5 471.5,119.5 471.5,132.5C 468.167,132.5 464.833,132.5 461.5,132.5C 461.5,127.5 461.5,122.5 461.5,117.5 Z"/></g>
<g><path style="opacity:1" fill="#150402" d="M 417.5,102.5 C 417.5,112.5 417.5,122.5 417.5,132.5C 414.5,132.5 411.5,132.5 408.5,132.5C 408.334,122.494 408.5,112.494 409,102.5C 409.5,112.161 409.666,121.828 409.5,131.5C 411.833,131.5 414.167,131.5 416.5,131.5C 416.168,121.082 416.501,111.416 417.5,102.5 Z"/></g>
<g><path style="opacity:1" fill="#836641" d="M 572.5,115.5 C 563.619,115.845 554.952,116.845 546.5,118.5C 545.596,117.791 545.263,116.791 545.5,115.5C 554.5,115.5 563.5,115.5 572.5,115.5 Z"/></g>
<g><path style="opacity:1" fill="#1e0e06" d="M 621.5,132.5 C 621.334,122.494 621.5,112.494 622,102.5C 622.5,112.161 622.666,121.828 622.5,131.5C 624.833,131.5 627.167,131.5 629.5,131.5C 629.5,119.167 629.5,106.833 629.5,94.5C 619.167,94.5 608.833,94.5 598.5,94.5C 598.5,106.833 598.5,119.167 598.5,131.5C 600.833,131.5 603.167,131.5 605.5,131.5C 605.173,121.652 605.506,111.986 606.5,102.5C 606.5,112.5 606.5,122.5 606.5,132.5C 603.167,132.5 599.833,132.5 596.5,132.5C 596.5,119.5 596.5,106.5 596.5,93.5C 607.833,93.5 619.167,93.5 630.5,93.5C 630.5,106.5 630.5,119.5 630.5,132.5C 627.5,132.5 624.5,132.5 621.5,132.5 Z"/></g>
<g><path style="opacity:1" fill="#452b1c" d="M 621.5,132.5 C 620.506,122.681 620.173,112.681 620.5,102.5C 615.833,102.5 611.167,102.5 606.5,102.5C 605.506,111.986 605.173,121.652 605.5,131.5C 603.167,131.5 600.833,131.5 598.5,131.5C 598.5,119.167 598.5,106.833 598.5,94.5C 608.833,94.5 619.167,94.5 629.5,94.5C 629.5,106.833 629.5,119.167 629.5,131.5C 627.167,131.5 624.833,131.5 622.5,131.5C 622.666,121.828 622.5,112.161 622,102.5C 621.5,112.494 621.334,122.494 621.5,132.5 Z"/></g>
<g><path style="opacity:1" fill="#f8e5b2" d="M 232.5,115.5 C 236.911,115.021 241.078,115.688 245,117.5C 245.758,119.769 245.591,121.936 244.5,124C 240.514,124.499 236.514,124.666 232.5,124.5C 232.5,121.5 232.5,118.5 232.5,115.5 Z"/></g>
<g><path style="opacity:1" fill="#3a2418" d="M 802.5,124.5 C 802.5,130.167 802.5,135.833 802.5,141.5C 799.5,141.5 796.5,141.5 793.5,141.5C 793.5,138.5 793.5,135.5 793.5,132.5C 785.016,131.507 776.349,131.174 767.5,131.5C 767.5,134.5 767.5,137.5 767.5,140.5C 765.167,140.5 762.833,140.5 760.5,140.5C 760.5,135.5 760.5,130.5 760.5,125.5C 761.791,125.737 762.791,125.404 763.5,124.5C 763.5,124.167 763.5,123.833 763.5,123.5C 767.04,113.857 768.374,103.857 767.5,93.5C 777.833,93.5 788.167,93.5 798.5,93.5C 798.5,103.833 798.5,114.167 798.5,124.5C 799.833,124.5 801.167,124.5 802.5,124.5 Z"/></g>
<g><path style="opacity:1" fill="#fbe6b0" d="M 776.5,102.5 C 780.5,102.5 784.5,102.5 788.5,102.5C 788.5,109.833 788.5,117.167 788.5,124.5C 783.167,124.5 777.833,124.5 772.5,124.5C 774.467,117.294 775.801,109.961 776.5,102.5 Z"/></g>
<g><path style="opacity:1" fill="#3a2317" d="M 145.5,79.5 C 158.564,77.6967 167.897,82.6967 173.5,94.5C 170.71,95.5968 167.877,96.5968 165,97.5C 157.48,86.5239 149.147,85.8572 140,95.5C 134.943,106.531 137.11,115.698 146.5,123C 150.594,123.767 154.594,123.434 158.5,122C 160.709,119.622 163.042,117.455 165.5,115.5C 168.13,116.378 170.797,117.045 173.5,117.5C 170.134,128.294 162.634,133.628 151,133.5C 137.35,132.34 129.35,125.007 127,111.5C 125.221,96.0383 131.388,85.3716 145.5,79.5 Z"/></g>
<g><path style="opacity:1" fill="#fae5b2" d="M 489.5,114.5 C 493.514,114.334 497.514,114.501 501.5,115C 504.39,118.419 504.057,121.419 500.5,124C 496.848,124.499 493.182,124.665 489.5,124.5C 489.5,121.167 489.5,117.833 489.5,114.5 Z"/></g>
<g><path style="opacity:1" fill="#372115" d="M 732.5,93.5 C 736.846,93.3343 741.179,93.501 745.5,94C 752.049,96.2662 754.549,100.766 753,107.5C 752.167,109.667 750.667,111.167 748.5,112C 754.169,114.815 756.002,119.315 754,125.5C 750.761,130.872 745.928,133.539 739.5,133.5C 731.311,133.58 725.644,129.914 722.5,122.5C 725.111,121.62 727.778,120.954 730.5,120.5C 732.651,123.115 735.484,124.782 739,125.5C 745.93,124.25 747.097,121.083 742.5,116C 739.518,115.502 736.518,115.335 733.5,115.5C 733.5,113.167 733.5,110.833 733.5,108.5C 736.518,108.665 739.518,108.498 742.5,108C 745.738,103.582 744.571,101.082 739,100.5C 735.601,100.72 733.101,102.386 731.5,105.5C 728.609,104.994 725.942,103.994 723.5,102.5C 725.549,98.4506 728.549,95.4506 732.5,93.5 Z"/></g>
<g><path style="opacity:1" fill="#896a4c" d="M 802.5,124.5 C 803.49,130.31 803.823,136.31 803.5,142.5C 799.958,142.813 796.625,142.479 793.5,141.5C 796.5,141.5 799.5,141.5 802.5,141.5C 802.5,135.833 802.5,130.167 802.5,124.5 Z"/></g>
<g><path style="opacity:1" fill="#907452" d="M 763.5,123.5 C 763.5,123.833 763.5,124.167 763.5,124.5C 762.167,124.5 760.833,124.5 759.5,124.5C 759.5,130.167 759.5,135.833 759.5,141.5C 762.5,141.5 765.5,141.5 768.5,141.5C 765.375,142.479 762.042,142.813 758.5,142.5C 758.5,136.167 758.5,129.833 758.5,123.5C 760.167,123.5 761.833,123.5 763.5,123.5 Z"/></g>
<g><path style="opacity:1" fill="#060100" d="M 763.5,124.5 C 762.791,125.404 761.791,125.737 760.5,125.5C 760.5,130.5 760.5,135.5 760.5,140.5C 762.833,140.5 765.167,140.5 767.5,140.5C 767.5,137.5 767.5,134.5 767.5,131.5C 776.349,131.174 785.016,131.507 793.5,132.5C 785.167,132.5 776.833,132.5 768.5,132.5C 768.5,135.5 768.5,138.5 768.5,141.5C 765.5,141.5 762.5,141.5 759.5,141.5C 759.5,135.833 759.5,130.167 759.5,124.5C 760.833,124.5 762.167,124.5 763.5,124.5 Z"/></g>
<g><path style="opacity:1" fill="#0a0201" d="M 527.5,174.5 C 524.5,174.5 521.5,174.5 518.5,174.5C 518.5,191.5 518.5,208.5 518.5,225.5C 521.119,225.768 523.619,225.435 526,224.5C 526.174,219.649 526.674,214.982 527.5,210.5C 527.5,215.833 527.5,221.167 527.5,226.5C 524.167,226.5 520.833,226.5 517.5,226.5C 517.5,208.833 517.5,191.167 517.5,173.5C 521.042,173.187 524.375,173.521 527.5,174.5 Z"/></g>
<g><path style="opacity:1" fill="#342218" d="M 459.5,211.5 C 460.398,210.842 461.398,210.176 462.5,209.5C 462,208.5 461.5,207.5 461,206.5C 460.107,207.081 459.107,207.415 458,207.5C 454.188,206.854 450.354,206.354 446.5,206C 449.695,205.819 452.695,205.319 455.5,204.5C 458.776,203.878 460.109,201.878 459.5,198.5C 460.341,197.991 460.841,198.657 461,200.5C 461.333,199.833 461.667,199.167 462,198.5C 463.57,198.67 465.403,199.003 467.5,199.5C 466.81,195.312 464.31,192.978 460,192.5C 457.768,194.338 454.768,195.338 451,195.5C 449.167,195.333 447.333,195.167 445.5,195C 448.882,194.824 452.215,194.324 455.5,193.5C 455.291,192.914 454.957,192.414 454.5,192C 455.672,191.581 456.672,190.915 457.5,190C 453.464,190.398 449.464,190.231 445.5,189.5C 444.345,186.554 444.179,183.554 445,180.5C 445.183,183.365 445.683,186.031 446.5,188.5C 449.518,188.665 452.518,188.498 455.5,188C 459.5,185.667 459.5,183.333 455.5,181C 452.518,180.502 449.518,180.335 446.5,180.5C 449.641,179.679 452.975,179.179 456.5,179C 454.731,177.981 453.064,177.814 451.5,178.5C 450.261,176.993 450.595,175.826 452.5,175C 447.511,174.501 442.511,174.334 437.5,174.5C 437.5,186.833 437.5,199.167 437.5,211.5C 444.687,211.175 451.687,211.509 458.5,212.5C 450.833,212.5 443.167,212.5 435.5,212.5C 435.5,199.5 435.5,186.5 435.5,173.5C 443.84,173.334 452.173,173.5 460.5,174C 462.519,174.45 464.352,175.283 466,176.5C 468.615,182.166 467.782,187.166 463.5,191.5C 470.623,196.983 471.29,203.149 465.5,210C 463.655,211.128 461.655,211.628 459.5,211.5 Z"/></g>
<g><path style="opacity:1" fill="#27160d" d="M 729.5,181.5 C 730.494,191.319 730.827,201.319 730.5,211.5C 732.833,211.5 735.167,211.5 737.5,211.5C 737.334,201.494 737.5,191.494 738,181.5C 741.411,180.707 744.911,180.207 748.5,180C 746.833,179.667 745.167,179.333 743.5,179C 744.833,178 744.833,177 743.5,176C 744.167,175.667 744.833,175.333 745.5,175C 736.506,174.5 727.506,174.334 718.5,174.5C 718.5,176.5 718.5,178.5 718.5,180.5C 722.042,180.187 725.375,180.521 728.5,181.5C 724.833,181.5 721.167,181.5 717.5,181.5C 717.5,178.833 717.5,176.167 717.5,173.5C 728.833,173.5 740.167,173.5 751.5,173.5C 751.5,176.167 751.5,178.833 751.5,181.5C 747.5,181.5 743.5,181.5 739.5,181.5C 739.5,191.833 739.5,202.167 739.5,212.5C 736.167,212.5 732.833,212.5 729.5,212.5C 729.5,202.167 729.5,191.833 729.5,181.5 Z"/></g>
<g><path style="opacity:1" fill="#392217" d="M 251.5,173.5 C 259.507,173.334 267.507,173.5 275.5,174C 283.217,176.27 285.383,181.103 282,188.5C 280.926,189.618 279.76,190.618 278.5,191.5C 284.206,194.909 286.039,199.909 284,206.5C 282.213,208.958 279.879,210.624 277,211.5C 268.542,212.457 260.042,212.79 251.5,212.5C 251.5,199.5 251.5,186.5 251.5,173.5 Z"/></g>
<g><path style="opacity:1" fill="#3b2418" d="M 374.5,212.5 C 374.5,207.167 374.5,201.833 374.5,196.5C 369.305,196.179 364.305,196.513 359.5,197.5C 359.5,202.5 359.5,207.5 359.5,212.5C 355.833,212.5 352.167,212.5 348.5,212.5C 348.5,199.5 348.5,186.5 348.5,173.5C 352.167,173.5 355.833,173.5 359.5,173.5C 359.5,178.5 359.5,183.5 359.5,188.5C 364.5,188.5 369.5,188.5 374.5,188.5C 374.5,183.5 374.5,178.5 374.5,173.5C 377.833,173.5 381.167,173.5 384.5,173.5C 384.5,186.5 384.5,199.5 384.5,212.5C 381.167,212.5 377.833,212.5 374.5,212.5 Z"/></g>
<g><path style="opacity:1" fill="#3c2418" d="M 402.5,211.5 C 399.5,211.5 396.5,211.5 393.5,211.5C 393.5,199.167 393.5,186.833 393.5,174.5C 396.167,174.5 398.833,174.5 401.5,174.5C 401.175,181.687 401.509,188.687 402.5,195.5C 402.81,196.738 403.31,196.738 404,195.5C 408.5,188.333 413,181.167 417.5,174C 421.152,173.501 424.818,173.335 428.5,173.5C 428.5,186.5 428.5,199.5 428.5,212.5C 425.167,212.5 421.833,212.5 418.5,212.5C 418.666,204.493 418.5,196.493 418,188.5C 413.306,196.578 408.139,204.244 402.5,211.5 Z"/></g>
<g><path style="opacity:1" fill="#0a0100" d="M 402.5,195.5 C 401.509,188.687 401.175,181.687 401.5,174.5C 398.833,174.5 396.167,174.5 393.5,174.5C 393.5,186.833 393.5,199.167 393.5,211.5C 396.5,211.5 399.5,211.5 402.5,211.5C 399.375,212.479 396.042,212.813 392.5,212.5C 392.5,199.5 392.5,186.5 392.5,173.5C 395.833,173.5 399.167,173.5 402.5,173.5C 402.5,180.833 402.5,188.167 402.5,195.5 Z"/></g>
<g><path style="opacity:1" fill="#372116" d="M 600.5,173.5 C 603.833,173.5 607.167,173.5 610.5,173.5C 610.334,181.174 610.5,188.841 611,196.5C 615.833,189 620.667,181.5 625.5,174C 628.817,173.502 632.15,173.335 635.5,173.5C 635.5,186.5 635.5,199.5 635.5,212.5C 632.5,212.5 629.5,212.5 626.5,212.5C 626.666,204.826 626.5,197.159 626,189.5C 620.918,196.662 616.085,203.995 611.5,211.5C 607.893,212.489 604.226,212.823 600.5,212.5C 600.5,199.5 600.5,186.5 600.5,173.5 Z"/></g>
<g><path style="opacity:1" fill="#372217" d="M 641.5,173.5 C 652.833,173.5 664.167,173.5 675.5,173.5C 675.5,176.167 675.5,178.833 675.5,181.5C 671.5,181.5 667.5,181.5 663.5,181.5C 663.5,191.833 663.5,202.167 663.5,212.5C 660.167,212.5 656.833,212.5 653.5,212.5C 653.5,202.167 653.5,191.833 653.5,181.5C 649.5,181.5 645.5,181.5 641.5,181.5C 641.5,178.833 641.5,176.167 641.5,173.5 Z"/></g>
<g><path style="opacity:1" fill="#42281a" d="M 729.5,181.5 C 729.167,181.5 728.833,181.5 728.5,181.5C 725.375,180.521 722.042,180.187 718.5,180.5C 718.5,178.5 718.5,176.5 718.5,174.5C 727.506,174.334 736.506,174.5 745.5,175C 744.833,175.333 744.167,175.667 743.5,176C 744.833,177 744.833,178 743.5,179C 745.167,179.333 746.833,179.667 748.5,180C 744.911,180.207 741.411,180.707 738,181.5C 737.5,191.494 737.334,201.494 737.5,211.5C 735.167,211.5 732.833,211.5 730.5,211.5C 730.827,201.319 730.494,191.319 729.5,181.5 Z"/></g>
<g><path style="opacity:1" fill="#3b2418" d="M 488.5,172.5 C 504.047,172.379 511.38,180.046 510.5,195.5C 501.833,195.5 493.167,195.5 484.5,195.5C 485.192,203.672 489.526,206.506 497.5,204C 499.667,203.167 501.167,201.667 502,199.5C 504.724,200.892 507.557,202.058 510.5,203C 504.484,212.339 496.151,215.339 485.5,212C 480.269,209.768 476.769,205.935 475,200.5C 471.832,187.174 476.332,177.84 488.5,172.5 Z"/></g>
<g><path style="opacity:1" fill="#3a2317" d="M 527.5,210.5 C 526.674,214.982 526.174,219.649 526,224.5C 523.619,225.435 521.119,225.768 518.5,225.5C 518.5,208.5 518.5,191.5 518.5,174.5C 521.5,174.5 524.5,174.5 527.5,174.5C 527.369,175.239 527.536,175.906 528,176.5C 539.885,169.685 548.552,172.685 554,185.5C 556.656,207.371 547.822,215.705 527.5,210.5 Z"/></g>
<g><path style="opacity:1" fill="#392317" d="M 692.5,172.5 C 707.985,172.319 715.319,179.986 714.5,195.5C 705.833,195.5 697.167,195.5 688.5,195.5C 689.147,203.616 693.48,206.449 701.5,204C 703.269,202.936 704.936,201.769 706.5,200.5C 709.359,200.899 712.026,201.733 714.5,203C 708.471,212.261 700.137,215.261 689.5,212C 683.836,209.668 680.336,205.501 679,199.5C 676.138,186.557 680.638,177.557 692.5,172.5 Z"/></g>
<g><path style="opacity:1" fill="#fae7b4" d="M 261.5,180.5 C 264.85,180.335 268.183,180.502 271.5,181C 274.054,183.398 274.054,185.731 271.5,188C 268.183,188.498 264.85,188.665 261.5,188.5C 261.5,185.833 261.5,183.167 261.5,180.5 Z"/></g>
<g><path style="opacity:1" fill="#3a2317" d="M 573.5,172.5 C 583.14,171.651 590.14,175.484 594.5,184C 592.466,185.981 589.966,187.148 587,187.5C 585.389,185.79 583.889,183.957 582.5,182C 576.521,180.072 572.354,181.905 570,187.5C 568.348,193.964 569.848,199.464 574.5,204C 580.183,205.656 584.183,203.823 586.5,198.5C 589.637,199.126 592.637,200.126 595.5,201.5C 591.057,210.712 583.724,214.546 573.5,213C 561.225,207.919 556.725,198.752 560,185.5C 562.442,178.888 566.942,174.555 573.5,172.5 Z"/></g>
<g><path style="opacity:1" fill="#faeec0" d="M 488.5,181.5 C 491.518,181.335 494.518,181.502 497.5,182C 499.919,183.509 500.919,185.675 500.5,188.5C 495.125,188.828 489.792,188.495 484.5,187.5C 485.467,185.21 486.8,183.21 488.5,181.5 Z"/></g>
<g><path style="opacity:1" fill="#f4e6b7" d="M 446.5,180.5 C 449.518,180.335 452.518,180.502 455.5,181C 459.5,183.333 459.5,185.667 455.5,188C 452.518,188.498 449.518,188.665 446.5,188.5C 446.5,185.833 446.5,183.167 446.5,180.5 Z"/></g>
<g><path style="opacity:1" fill="#fdebb8" d="M 692.5,181.5 C 695.518,181.335 698.518,181.502 701.5,182C 703.451,183.734 704.451,185.901 704.5,188.5C 699.167,188.5 693.833,188.5 688.5,188.5C 688.961,185.697 690.295,183.363 692.5,181.5 Z"/></g>
<g><path style="opacity:1" fill="#fce5b0" d="M 531.5,181.5 C 537.489,180.065 541.655,182.065 544,187.5C 544.667,191.167 544.667,194.833 544,198.5C 541.983,203.924 538.15,205.758 532.5,204C 530.333,203.167 528.833,201.667 528,199.5C 527.333,195.167 527.333,190.833 528,186.5C 528.997,184.677 530.164,183.01 531.5,181.5 Z"/></g>
<g><path style="opacity:1" fill="#442a1b" d="M 446.5,180.5 C 446.5,183.167 446.5,185.833 446.5,188.5C 445.683,186.031 445.183,183.365 445,180.5C 444.179,183.554 444.345,186.554 445.5,189.5C 449.464,190.231 453.464,190.398 457.5,190C 456.672,190.915 455.672,191.581 454.5,192C 454.957,192.414 455.291,192.914 455.5,193.5C 452.215,194.324 448.882,194.824 445.5,195C 447.333,195.167 449.167,195.333 451,195.5C 454.768,195.338 457.768,194.338 460,192.5C 464.31,192.978 466.81,195.312 467.5,199.5C 465.403,199.003 463.57,198.67 462,198.5C 461.667,199.167 461.333,199.833 461,200.5C 460.841,198.657 460.341,197.991 459.5,198.5C 455.473,196.642 451.14,195.975 446.5,196.5C 446.5,199.167 446.5,201.833 446.5,204.5C 449.5,204.5 452.5,204.5 455.5,204.5C 452.695,205.319 449.695,205.819 446.5,206C 450.354,206.354 454.188,206.854 458,207.5C 459.107,207.415 460.107,207.081 461,206.5C 461.5,207.5 462,208.5 462.5,209.5C 461.398,210.176 460.398,210.842 459.5,211.5C 459.5,212.167 459.167,212.5 458.5,212.5C 451.687,211.509 444.687,211.175 437.5,211.5C 437.5,199.167 437.5,186.833 437.5,174.5C 442.511,174.334 447.511,174.501 452.5,175C 450.595,175.826 450.261,176.993 451.5,178.5C 453.064,177.814 454.731,177.981 456.5,179C 452.975,179.179 449.641,179.679 446.5,180.5 Z"/></g>
<g><path style="opacity:1" fill="#f9e4b2" d="M 261.5,195.5 C 265.911,195.021 270.078,195.688 274,197.5C 274.758,199.769 274.591,201.936 273.5,204C 269.514,204.499 265.514,204.666 261.5,204.5C 261.5,201.5 261.5,198.5 261.5,195.5 Z"/></g>
<g><path style="opacity:1" fill="#927651" d="M 359.5,197.5 C 364.305,196.513 369.305,196.179 374.5,196.5C 374.5,201.833 374.5,207.167 374.5,212.5C 373.513,207.695 373.179,202.695 373.5,197.5C 368.833,197.5 364.167,197.5 359.5,197.5 Z"/></g>
<g><path style="opacity:1" fill="#fdeab7" d="M 459.5,198.5 C 460.109,201.878 458.776,203.878 455.5,204.5C 452.5,204.5 449.5,204.5 446.5,204.5C 446.5,201.833 446.5,199.167 446.5,196.5C 451.14,195.975 455.473,196.642 459.5,198.5 Z"/></g>
<g><path style="opacity:1" fill="#382217" d="M 305.5,173.5 C 309.167,173.5 312.833,173.5 316.5,173.5C 318.389,182.72 321.055,191.72 324.5,200.5C 327.634,191.629 330.301,182.629 332.5,173.5C 336.182,173.335 339.848,173.501 343.5,174C 337.335,190.494 331.168,206.994 325,223.5C 319.955,227.901 314.455,228.568 308.5,225.5C 309.189,223.556 309.689,221.556 310,219.5C 312.405,218.726 314.905,218.226 317.5,218C 318.718,216.562 319.385,214.895 319.5,213C 314.535,199.937 309.868,186.77 305.5,173.5 Z"/></g>
<g><path style="opacity:1" fill="#f5c876" d="M 998.5,430.5 C 982.422,430.183 966.422,430.516 950.5,431.5C 941.5,430.167 932.5,430.167 923.5,431.5C 907.578,430.516 891.578,430.183 875.5,430.5C 866.167,430.5 856.833,430.5 847.5,430.5C 831.422,430.183 815.422,430.516 799.5,431.5C 795.18,430.834 790.68,430.501 786,430.5C 781.114,430.507 776.614,431.174 772.5,432.5C 756.33,430.176 739.996,429.843 723.5,431.5C 719.018,430.674 714.351,430.174 709.5,430C 705.64,428.807 703.14,426.307 702,422.5C 701.024,402.077 701.357,381.744 703,361.5C 703.75,360.874 704.584,360.374 705.5,360C 714.268,359.942 722.935,359.275 731.5,358C 772.167,332.333 812.833,306.667 853.5,281C 857.218,278.702 861.218,278.035 865.5,279C 908.332,305.917 951.332,332.584 994.5,359C 1002.17,359.333 1009.83,359.667 1017.5,360C 1018.67,361.167 1019.83,362.333 1021,363.5C 1021.67,383.5 1021.67,403.5 1021,423.5C 1019.88,425.624 1018.38,427.457 1016.5,429C 1010.58,430.304 1004.58,430.804 998.5,430.5 Z"/></g>
<g><path style="opacity:1" fill="#412616" d="M 645.5,437.5 C 644.972,427.557 642.639,418.057 638.5,409C 621.812,413.593 604.812,414.593 587.5,412C 581.991,410.664 576.657,408.83 571.5,406.5C 569.733,412.356 568.567,418.356 568,424.5C 566.268,430.057 563.601,435.057 560,439.5C 554.662,434.796 549.162,434.463 543.5,438.5C 542.441,428.86 542.275,419.194 543,409.5C 544.55,400.725 548.883,393.725 556,388.5C 564.557,371.631 578.39,363.631 597.5,364.5C 611.17,364.252 623.837,367.752 635.5,375C 639.84,375.417 644.173,375.251 648.5,374.5C 651.011,374.288 653.178,374.955 655,376.5C 657.563,385.827 655.396,393.994 648.5,401C 653.335,411.22 653.835,421.72 650,432.5C 648.953,434.708 647.453,436.374 645.5,437.5 Z"/></g>
<g><path style="opacity:1" fill="#5b3405" d="M 842.5,379.5 C 848.5,379.5 854.5,379.5 860.5,379.5C 860.5,381.167 860.5,382.833 860.5,384.5C 856.167,384.5 851.833,384.5 847.5,384.5C 847.5,386.833 847.5,389.167 847.5,391.5C 851.5,391.5 855.5,391.5 859.5,391.5C 859.5,393.167 859.5,394.833 859.5,396.5C 855.5,396.5 851.5,396.5 847.5,396.5C 847.5,399.167 847.5,401.833 847.5,404.5C 852.167,404.5 856.833,404.5 861.5,404.5C 861.5,406.167 861.5,407.833 861.5,409.5C 855.167,409.5 848.833,409.5 842.5,409.5C 842.5,399.5 842.5,389.5 842.5,379.5 Z"/></g>
<g><path style="opacity:1" fill="#5e3504" d="M 867.5,379.5 C 874.061,378.919 880.395,379.752 886.5,382C 890.929,387.832 890.262,392.999 884.5,397.5C 886.3,401.129 888.3,404.629 890.5,408C 888.098,408.814 885.765,408.647 883.5,407.5C 882.167,404.833 880.833,402.167 879.5,399.5C 877.604,398.534 875.604,398.201 873.5,398.5C 873.5,401.833 873.5,405.167 873.5,408.5C 871.5,408.5 869.5,408.5 867.5,408.5C 867.5,398.833 867.5,389.167 867.5,379.5 Z"/></g>
<g><path style="opacity:1" fill="#5e3605" d="M 809.5,379.5 C 811.792,379.244 813.959,379.577 816,380.5C 818.333,387.5 820.667,394.5 823,401.5C 825.333,394.5 827.667,387.5 830,380.5C 832.139,379.231 834.305,379.231 836.5,380.5C 832.582,389.66 829.249,398.993 826.5,408.5C 824.076,408.808 821.743,408.474 819.5,407.5C 816.159,398.156 812.826,388.822 809.5,379.5 Z"/></g>
<g><path style="opacity:1" fill="#f9db89" d="M 873.5,384.5 C 876.187,384.336 878.854,384.503 881.5,385C 883.648,387.075 883.982,389.408 882.5,392C 879.518,392.498 876.518,392.665 873.5,392.5C 873.5,389.833 873.5,387.167 873.5,384.5 Z"/></g>
<g><path style="opacity:1" fill="#5e3505" d="M 901.5,379.5 C 908.797,377.726 914.13,380.06 917.5,386.5C 914.133,389.64 911.466,389.14 909.5,385C 907.5,384.333 905.5,384.333 903.5,385C 902.167,386.667 902.167,388.333 903.5,390C 908.298,391.316 912.631,393.483 916.5,396.5C 918.63,404.552 915.464,408.886 907,409.5C 901.375,409.612 897.542,407.112 895.5,402C 896.944,399.966 898.944,399.132 901.5,399.5C 901.297,401.39 901.963,402.89 903.5,404C 905.833,404.667 908.167,404.667 910.5,404C 911.76,402.186 911.76,400.353 910.5,398.5C 905.511,397.011 901.011,394.678 897,391.5C 895.309,386.131 896.809,382.131 901.5,379.5 Z"/></g>
<g><path style="opacity:1" fill="#562d03" d="M 935.5,379.5 C 943.5,379.5 951.5,379.5 959.5,379.5C 959.5,381.167 959.5,382.833 959.5,384.5C 956.5,384.5 953.5,384.5 950.5,384.5C 950.5,392.5 950.5,400.5 950.5,408.5C 948.5,408.5 946.5,408.5 944.5,408.5C 944.5,400.5 944.5,392.5 944.5,384.5C 941.5,384.5 938.5,384.5 935.5,384.5C 935.5,382.833 935.5,381.167 935.5,379.5 Z"/></g>
<g><path style="opacity:1" fill="#5e3605" d="M 963.5,380.5 C 965.693,379.203 968.027,379.203 970.5,380.5C 972.246,384.327 974.246,387.993 976.5,391.5C 978.491,387.839 980.491,384.172 982.5,380.5C 984.5,379.167 986.5,379.167 988.5,380.5C 985.397,385.706 982.564,391.04 980,396.5C 979.501,400.821 979.334,405.154 979.5,409.5C 977.5,409.5 975.5,409.5 973.5,409.5C 973.666,405.154 973.499,400.821 973,396.5C 970.059,390.938 966.892,385.605 963.5,380.5 Z"/></g>
<g><path style="opacity:1" fill="#5b3404" d="M 766.5,379.5 C 768.792,379.244 770.959,379.577 773,380.5C 777.25,386.665 781.25,392.998 785,399.5C 785.5,392.842 785.666,386.175 785.5,379.5C 787.167,379.5 788.833,379.5 790.5,379.5C 790.5,389.167 790.5,398.833 790.5,408.5C 788.208,408.756 786.041,408.423 784,407.5C 780.582,401.663 776.916,395.996 773,390.5C 772.5,396.825 772.334,403.158 772.5,409.5C 770.5,409.5 768.5,409.5 766.5,409.5C 766.5,399.5 766.5,389.5 766.5,379.5 Z"/></g>
<g><path style="opacity:1" fill="#583104" d="M 735.5,379.5 C 737.167,379.5 738.833,379.5 740.5,379.5C 740.334,386.508 740.5,393.508 741,400.5C 743.161,404.124 746.328,405.291 750.5,404C 751.701,403.097 752.535,401.931 753,400.5C 753.5,393.508 753.666,386.508 753.5,379.5C 755.5,379.5 757.5,379.5 759.5,379.5C 759.901,387.585 759.401,395.585 758,403.5C 755.389,407.66 751.556,409.66 746.5,409.5C 741.524,409.353 738.024,407.02 736,402.5C 735.5,394.841 735.334,387.174 735.5,379.5 Z"/></g>
<g><path style="opacity:1" fill="#341300" d="M 924.5,379.5 C 924.5,388.833 924.5,398.167 924.5,407.5C 925.5,407.5 926.5,407.5 927.5,407.5C 927.5,398.167 927.5,388.833 927.5,379.5C 928.494,388.986 928.827,398.652 928.5,408.5C 926.833,408.5 925.167,408.5 923.5,408.5C 923.173,398.652 923.506,388.986 924.5,379.5 Z"/></g>
<g><path style="opacity:1" fill="#694001" d="M 924.5,379.5 C 925.5,379.5 926.5,379.5 927.5,379.5C 927.5,388.833 927.5,398.167 927.5,407.5C 926.5,407.5 925.5,407.5 924.5,407.5C 924.5,398.167 924.5,388.833 924.5,379.5 Z"/></g>
<g><path style="opacity:1" fill="#b28437" d="M 798.5,379.5 C 798.5,379.833 798.5,380.167 798.5,380.5C 798.5,389.833 798.5,399.167 798.5,408.5C 800.167,408.5 801.833,408.5 803.5,408.5C 803.5,399.167 803.5,389.833 803.5,380.5C 803.5,380.167 803.5,379.833 803.5,379.5C 804.494,389.319 804.827,399.319 804.5,409.5C 802.167,409.5 799.833,409.5 797.5,409.5C 797.173,399.319 797.506,389.319 798.5,379.5 Z"/></g>
<g><path style="opacity:1" fill="#301100" d="M 798.5,380.5 C 799.493,389.318 799.827,398.318 799.5,407.5C 800.5,407.5 801.5,407.5 802.5,407.5C 803.12,398.399 802.454,389.566 800.5,381C 801.448,380.517 802.448,380.351 803.5,380.5C 803.5,389.833 803.5,399.167 803.5,408.5C 801.833,408.5 800.167,408.5 798.5,408.5C 798.5,399.167 798.5,389.833 798.5,380.5 Z"/></g>
<g><path style="opacity:1" fill="#6a4203" d="M 798.5,380.5 C 798.5,380.167 798.5,379.833 798.5,379.5C 800.167,379.5 801.833,379.5 803.5,379.5C 803.5,379.833 803.5,380.167 803.5,380.5C 802.448,380.351 801.448,380.517 800.5,381C 802.454,389.566 803.12,398.399 802.5,407.5C 801.5,407.5 800.5,407.5 799.5,407.5C 799.827,398.318 799.493,389.318 798.5,380.5 Z"/></g>
<g><path style="opacity:1" fill="#fee5ad" d="M 799.5,431.5 C 799.334,435.514 799.501,439.514 800,443.5C 801.055,446.056 802.888,447.723 805.5,448.5C 805.5,483.833 805.5,519.167 805.5,554.5C 792.5,554.5 779.5,554.5 766.5,554.5C 766.5,519.167 766.5,483.833 766.5,448.5C 769.112,447.723 770.945,446.056 772,443.5C 772.499,439.848 772.665,436.182 772.5,432.5C 776.614,431.174 781.114,430.507 786,430.5C 790.68,430.501 795.18,430.834 799.5,431.5 Z"/></g>
<g><path style="opacity:1" fill="#fee5ad" d="M 847.5,430.5 C 856.833,430.5 866.167,430.5 875.5,430.5C 874.398,434.747 874.232,439.08 875,443.5C 876.033,446.033 877.867,447.699 880.5,448.5C 881.5,483.827 881.833,519.16 881.5,554.5C 868.5,554.5 855.5,554.5 842.5,554.5C 842.5,519.167 842.5,483.833 842.5,448.5C 845.72,447.453 847.553,445.119 848,441.5C 848.755,437.745 848.589,434.078 847.5,430.5 Z"/></g>
<g><path style="opacity:1" fill="#fee5ad" d="M 950.5,431.5 C 947.806,439.1 949.806,444.766 956.5,448.5C 956.5,483.833 956.5,519.167 956.5,554.5C 943.5,554.5 930.5,554.5 917.5,554.5C 917.167,519.16 917.5,483.827 918.5,448.5C 921.755,447.34 923.588,445.007 924,441.5C 924.747,438.076 924.58,434.743 923.5,431.5C 932.5,430.167 941.5,430.167 950.5,431.5 Z"/></g>
<g><path style="opacity:1" fill="#f0a312" d="M 236.5,295.5 C 236.828,387.874 236.495,480.208 235.5,572.5C 233.692,573.907 231.692,575.074 229.5,576C 210.836,576.5 192.17,576.667 173.5,576.5C 173.667,550.498 173.5,524.498 173,498.5C 171.745,497.789 170.579,496.956 169.5,496C 155.833,495.333 142.167,495.333 128.5,496C 127.333,497.167 126.167,498.333 125,499.5C 124.5,525.165 124.333,550.831 124.5,576.5C 105.497,576.667 86.4971,576.5 67.5,576C 65.3762,574.878 63.5429,573.378 62,571.5C 61.3333,478.833 61.3333,386.167 62,293.5C 63.5429,291.622 65.3762,290.122 67.5,289C 121.5,288.333 175.5,288.333 229.5,289C 233.015,290.018 235.348,292.185 236.5,295.5 Z"/></g>
<g><path style="opacity:1" fill="#cc7b01" d="M 98.5,410.5 C 109.505,410.333 120.505,410.5 131.5,411C 132.308,411.308 132.975,411.808 133.5,412.5C 134.649,426.455 134.816,440.455 134,454.5C 133.167,455.333 132.333,456.167 131.5,457C 120.5,457.667 109.5,457.667 98.5,457C 97.6667,456.167 96.8333,455.333 96,454.5C 95.3333,440.833 95.3333,427.167 96,413.5C 97.045,412.627 97.8783,411.627 98.5,410.5 Z"/></g>
<g><path style="opacity:1" fill="#ce7d01" d="M 166.5,410.5 C 177.505,410.333 188.505,410.5 199.5,411C 200.333,411.833 201.167,412.667 202,413.5C 202.667,427.167 202.667,440.833 202,454.5C 201.167,455.333 200.333,456.167 199.5,457C 188.5,457.667 177.5,457.667 166.5,457C 165.667,456.167 164.833,455.333 164,454.5C 163.333,441.167 163.333,427.833 164,414.5C 164.662,413.016 165.496,411.683 166.5,410.5 Z"/></g>
<g><path style="opacity:1" fill="#cd7c01" d="M 99.5,331.5 C 110.172,331.333 120.839,331.5 131.5,332C 132.333,332.833 133.167,333.667 134,334.5C 134.667,347.833 134.667,361.167 134,374.5C 133.535,375.931 132.701,377.097 131.5,378C 120.5,378.667 109.5,378.667 98.5,378C 97.6667,377.167 96.8333,376.333 96,375.5C 95.3333,362.167 95.3333,348.833 96,335.5C 97.1022,334.051 98.2689,332.718 99.5,331.5 Z"/></g>
<g><path style="opacity:1" fill="#cd7d01" d="M 167.5,331.5 C 178.172,331.333 188.839,331.5 199.5,332C 200.333,332.833 201.167,333.667 202,334.5C 202.667,348.167 202.667,361.833 202,375.5C 201.167,376.333 200.333,377.167 199.5,378C 188.833,378.667 178.167,378.667 167.5,378C 166.692,377.692 166.025,377.192 165.5,376.5C 164.351,362.545 164.184,348.545 165,334.5C 166.045,333.627 166.878,332.627 167.5,331.5 Z"/></g>
<g><path style="opacity:1" fill="#f9b473" d="M 419.5,509.5 C 420.346,520.987 415.013,526.654 403.5,526.5C 393.075,525.75 386.075,520.417 382.5,510.5C 383.5,510.5 384.5,510.5 385.5,510.5C 385.829,504.794 385.495,499.128 384.5,493.5C 374.244,485.662 368.077,475.329 366,462.5C 353.468,460.97 348.135,453.97 350,441.5C 354.463,434.151 360.629,432.485 368.5,436.5C 370.507,434.992 372.174,433.158 373.5,431C 389.014,426.001 402.514,417.834 414,406.5C 415.833,403.5 417.667,400.5 419.5,397.5C 427.608,412.275 439.275,423.275 454.5,430.5C 456.918,448.075 454.085,464.742 446,480.5C 439.734,490.376 430.901,496.376 419.5,498.5C 419.5,502.167 419.5,505.833 419.5,509.5 Z"/></g>
<g><path style="opacity:1" fill="#412717" d="M 477.5,499.5 C 471.013,509.313 462.346,516.647 451.5,521.5C 441.864,514.952 431.197,510.952 419.5,509.5C 419.5,505.833 419.5,502.167 419.5,498.5C 430.901,496.376 439.734,490.376 446,480.5C 454.085,464.742 456.918,448.075 454.5,430.5C 439.275,423.275 427.608,412.275 419.5,397.5C 417.667,400.5 415.833,403.5 414,406.5C 402.514,417.834 389.014,426.001 373.5,431C 372.174,433.158 370.507,434.992 368.5,436.5C 360.629,432.485 354.463,434.151 350,441.5C 348.135,453.97 353.468,460.97 366,462.5C 368.077,475.329 374.244,485.662 384.5,493.5C 385.495,499.128 385.829,504.794 385.5,510.5C 384.5,510.5 383.5,510.5 382.5,510.5C 368.416,510.861 355.75,515.194 344.5,523.5C 323.314,515.463 313.48,500.13 315,477.5C 316.726,473.047 318.726,468.714 321,464.5C 334.796,448.483 342.796,429.816 345,408.5C 360.892,370.138 388.725,356.971 428.5,369C 445.916,376.082 457.416,388.582 463,406.5C 464.337,419.219 466.004,431.886 468,444.5C 471.953,455.405 475.62,466.405 479,477.5C 479.848,484.942 479.348,492.276 477.5,499.5 Z"/></g>
<g><path style="opacity:1" fill="#d17431" d="M 414.5,452.5 C 418.353,453.345 421.019,455.679 422.5,459.5C 417.405,462.944 414.405,461.444 413.5,455C 413.743,454.098 414.077,453.265 414.5,452.5 Z"/></g>
<g><path style="opacity:1" fill="#392316" d="M 433.5,434.5 C 438.143,435.318 440.476,438.151 440.5,443C 440.677,446.831 439.011,449.331 435.5,450.5C 433.234,450.069 431.734,448.736 431,446.5C 429.773,441.938 430.607,437.938 433.5,434.5 Z"/></g>
<g><path style="opacity:1" fill="#372215" d="M 393.5,434.5 C 396.325,434.081 398.491,435.081 400,437.5C 400.667,440.833 400.667,444.167 400,447.5C 396.155,451.675 393.155,451.008 391,445.5C 389.812,441.259 390.645,437.592 393.5,434.5 Z"/></g>
<g><path style="opacity:1" fill="#321f14" d="M 400.5,471.5 C 404.743,473.531 409.243,474.531 414,474.5C 418.502,474.118 423.002,473.785 427.5,473.5C 427.74,477.578 425.74,479.744 421.5,480C 416.833,480.667 412.167,480.667 407.5,480C 404.53,479.237 402.03,477.737 400,475.5C 399.421,474.072 399.588,472.738 400.5,471.5 Z"/></g>
<g><path style="opacity:1" fill="#ec924d" d="M 645.5,437.5 C 646.616,450.846 645.116,463.846 641,476.5C 635.583,487.058 627.25,494.391 616,498.5C 615.501,502.152 615.335,505.818 615.5,509.5C 616.379,518.465 612.379,523.965 603.5,526C 595.136,527.696 587.47,526.196 580.5,521.5C 577.203,518.568 575.87,514.901 576.5,510.5C 576.5,510.167 576.5,509.833 576.5,509.5C 577.607,504.919 577.773,500.252 577,495.5C 566.336,488.169 559.67,478.169 557,465.5C 540.839,462.511 536.339,453.511 543.5,438.5C 549.162,434.463 554.662,434.796 560,439.5C 563.601,435.057 566.268,430.057 568,424.5C 568.567,418.356 569.733,412.356 571.5,406.5C 576.657,408.83 581.991,410.664 587.5,412C 604.812,414.593 621.812,413.593 638.5,409C 642.639,418.057 644.972,427.557 645.5,437.5 Z"/></g>
<g><path style="opacity:1" fill="#2d1c14" d="M 591.5,472.5 C 595.886,473.939 600.386,474.939 605,475.5C 609.088,475.349 613.088,474.682 617,473.5C 619.59,474.687 620.09,476.52 618.5,479C 612.369,481.344 606.036,482.011 599.5,481C 594.608,480.091 591.941,477.258 591.5,472.5 Z"/></g>
<g><path style="opacity:1" fill="#331f14" d="M 625.5,435.5 C 630.143,436.318 632.476,439.151 632.5,444C 631.886,451.674 628.719,453.174 623,448.5C 621.842,443.693 622.676,439.36 625.5,435.5 Z"/></g>
<g><path style="opacity:1" fill="#352014" d="M 585.5,435.5 C 588.642,435.799 590.809,437.466 592,440.5C 592.929,444.244 592.429,447.744 590.5,451C 585.317,452.819 582.484,450.986 582,445.5C 580.755,441.235 581.922,437.902 585.5,435.5 Z"/></g>
<g><path style="opacity:1" fill="#e2a645" d="M 847.5,430.5 C 848.589,434.078 848.755,437.745 848,441.5C 847.553,445.119 845.72,447.453 842.5,448.5C 841.502,483.663 841.168,518.996 841.5,554.5C 829.833,554.5 818.167,554.5 806.5,554.5C 806.832,518.996 806.498,483.663 805.5,448.5C 802.888,447.723 801.055,446.056 800,443.5C 799.501,439.514 799.334,435.514 799.5,431.5C 815.422,430.516 831.422,430.183 847.5,430.5 Z"/></g>
<g><path style="opacity:1" fill="#e2a645" d="M 875.5,430.5 C 891.578,430.183 907.578,430.516 923.5,431.5C 924.58,434.743 924.747,438.076 924,441.5C 923.588,445.007 921.755,447.34 918.5,448.5C 917.5,483.827 917.167,519.16 917.5,554.5C 905.5,554.5 893.5,554.5 881.5,554.5C 881.833,519.16 881.5,483.827 880.5,448.5C 877.867,447.699 876.033,446.033 875,443.5C 874.232,439.08 874.398,434.747 875.5,430.5 Z"/></g>
<g><path style="opacity:1" fill="#422717" d="M 615.5,509.5 C 638.608,514.04 656.608,526.04 669.5,545.5C 676.863,557.921 681.863,571.254 684.5,585.5C 675.837,593.258 666.337,599.924 656,605.5C 655.228,605.355 654.561,605.022 654,604.5C 653.501,608.486 653.334,612.486 653.5,616.5C 622.167,616.5 590.833,616.5 559.5,616.5C 560.919,615.549 562.585,615.216 564.5,615.5C 564.667,600.83 564.5,586.163 564,571.5C 561.563,567.413 559.563,567.746 558,572.5C 557.5,579.158 557.334,585.825 557.5,592.5C 544.833,592.5 532.167,592.5 519.5,592.5C 520.455,584.336 520.455,576.336 519.5,568.5C 520.582,556.588 524.248,545.588 530.5,535.5C 541.962,520.429 557.295,512.096 576.5,510.5C 575.87,514.901 577.203,518.568 580.5,521.5C 587.47,526.196 595.136,527.696 603.5,526C 612.379,523.965 616.379,518.465 615.5,509.5 Z"/></g>
<g><path style="opacity:1" fill="#e2a645" d="M 772.5,432.5 C 772.665,436.182 772.499,439.848 772,443.5C 770.945,446.056 769.112,447.723 766.5,448.5C 765.502,483.663 765.168,518.996 765.5,554.5C 753.833,554.5 742.167,554.5 730.5,554.5C 730.833,519.16 730.5,483.827 729.5,448.5C 722.788,444.607 720.788,438.94 723.5,431.5C 739.996,429.843 756.33,430.176 772.5,432.5 Z"/></g>
<g><path style="opacity:1" fill="#e2a746" d="M 998.5,430.5 C 999.602,434.747 999.768,439.08 999,443.5C 997.893,446.113 996.06,447.78 993.5,448.5C 992.502,483.663 992.168,518.996 992.5,554.5C 980.833,554.5 969.167,554.5 957.5,554.5C 957.832,518.996 957.498,483.663 956.5,448.5C 949.806,444.766 947.806,439.1 950.5,431.5C 966.422,430.516 982.422,430.183 998.5,430.5 Z"/></g>
<g><path style="opacity:1" fill="#e25b1f" d="M 419.5,509.5 C 431.197,510.952 441.864,514.952 451.5,521.5C 457.139,525.139 461.806,529.806 465.5,535.5C 475.167,552.47 480.167,570.803 480.5,590.5C 473.814,590.527 467.148,590.861 460.5,591.5C 460.795,593.735 460.461,595.735 459.5,597.5C 459.816,588.116 459.316,578.782 458,569.5C 455.833,568 454.333,568.5 453.5,571C 454.476,586.131 454.81,601.297 454.5,616.5C 421.167,616.5 387.833,616.5 354.5,616.5C 354.644,608.49 354.977,600.49 355.5,592.5C 342.51,590.751 329.51,589.085 316.5,587.5C 318.309,565.914 325.642,546.581 338.5,529.5C 340.806,527.861 342.806,525.861 344.5,523.5C 355.75,515.194 368.416,510.861 382.5,510.5C 386.075,520.417 393.075,525.75 403.5,526.5C 415.013,526.654 420.346,520.987 419.5,509.5 Z"/></g>
<g><path style="opacity:1" fill="#fef5d6" d="M 236.5,295.5 C 237.666,387.332 237.832,479.332 237,571.5C 236.617,572.056 236.117,572.389 235.5,572.5C 236.495,480.208 236.828,387.874 236.5,295.5 Z"/></g>
<g><path style="opacity:1" fill="#cd7c01" d="M 173.5,576.5 C 157.167,576.5 140.833,576.5 124.5,576.5C 124.333,550.831 124.5,525.165 125,499.5C 126.167,498.333 127.333,497.167 128.5,496C 142.167,495.333 155.833,495.333 169.5,496C 170.579,496.956 171.745,497.789 173,498.5C 173.5,524.498 173.667,550.498 173.5,576.5 Z"/></g>
<g><path style="opacity:1" fill="#f5c776" d="M 766.5,448.5 C 766.5,483.833 766.5,519.167 766.5,554.5C 779.5,554.5 792.5,554.5 805.5,554.5C 805.5,519.167 805.5,483.833 805.5,448.5C 806.498,483.663 806.832,518.996 806.5,554.5C 818.167,554.5 829.833,554.5 841.5,554.5C 841.168,518.996 841.502,483.663 842.5,448.5C 842.5,483.833 842.5,519.167 842.5,554.5C 855.5,554.5 868.5,554.5 881.5,554.5C 893.5,554.5 905.5,554.5 917.5,554.5C 930.5,554.5 943.5,554.5 956.5,554.5C 956.5,519.167 956.5,483.833 956.5,448.5C 957.498,483.663 957.832,518.996 957.5,554.5C 969.167,554.5 980.833,554.5 992.5,554.5C 992.168,518.996 992.502,483.663 993.5,448.5C 993.5,483.833 993.5,519.167 993.5,554.5C 996.85,554.335 1000.18,554.502 1003.5,555C 1005.67,555.833 1007.17,557.333 1008,559.5C 1008.67,569.833 1008.67,580.167 1008,590.5C 1007.17,592.667 1005.67,594.167 1003.5,595C 911.167,595.333 818.833,595.667 726.5,596C 727.774,596.977 727.774,597.811 726.5,598.5C 721.5,592.5 716.5,586.5 711.5,580.5C 712.295,573.913 712.795,567.246 713,560.5C 717.437,554.891 723.271,552.891 730.5,554.5C 742.167,554.5 753.833,554.5 765.5,554.5C 765.168,518.996 765.502,483.663 766.5,448.5 Z"/></g>
<g><path style="opacity:1" fill="#0c46fc" d="M 516.5,541.5 C 515.522,563.455 515.188,585.455 515.5,607.5C 514.822,597.575 514.489,586.908 514.5,575.5C 514.667,564.5 514.833,553.5 515,542.5C 515.333,541.833 515.667,541.167 516,540.5C 516.399,540.728 516.565,541.062 516.5,541.5 Z"/></g>
<g><path style="opacity:1" fill="#faea9d" d="M 530.5,535.5 C 524.248,545.588 520.582,556.588 519.5,568.5C 518.589,577.126 518.255,585.792 518.5,594.5C 518.295,600.878 518.628,607.211 519.5,613.5C 517.744,611.751 516.411,609.751 515.5,607.5C 515.188,585.455 515.522,563.455 516.5,541.5C 519.986,536.997 524.653,534.997 530.5,535.5 Z"/></g>
<g><path style="opacity:1" fill="#4572e5" d="M 477.5,499.5 C 510.895,499.48 543.895,502.813 576.5,509.5C 576.5,509.833 576.5,510.167 576.5,510.5C 557.295,512.096 541.962,520.429 530.5,535.5C 524.653,534.997 519.986,536.997 516.5,541.5C 516.565,541.062 516.399,540.728 516,540.5C 515.667,541.167 515.333,541.833 515,542.5C 514.833,553.5 514.667,564.5 514.5,575.5C 514.489,586.908 514.822,597.575 515.5,607.5C 516.411,609.751 517.744,611.751 519.5,613.5C 520.683,614.504 522.016,615.338 523.5,616C 534.828,616.5 546.162,616.667 557.5,616.5C 558.167,616.5 558.833,616.5 559.5,616.5C 590.833,616.5 622.167,616.5 653.5,616.5C 667.931,616.966 682.264,616.466 696.5,615C 698.325,613.534 698.825,611.701 698,609.5C 691.652,602.464 687.152,594.464 684.5,585.5C 681.863,571.254 676.863,557.921 669.5,545.5C 684.668,555.66 698.668,567.326 711.5,580.5C 716.5,586.5 721.5,592.5 726.5,598.5C 728.933,602.196 731.933,605.363 735.5,608C 770.912,612.804 804.245,623.804 835.5,641C 857.451,653.738 872.784,671.571 881.5,694.5C 873.172,687.064 863.506,684.898 852.5,688C 842.861,694.925 840.027,704.091 844,715.5C 851.272,734.699 864.772,741.532 884.5,736C 888.232,733.434 890.566,729.934 891.5,725.5C 893.248,734.615 894.415,743.948 895,753.5C 907.842,762.679 911.176,774.679 905,789.5C 901.677,795.079 896.844,798.579 890.5,800C 861.169,800.5 831.835,800.667 802.5,800.5C 806.738,758.801 790.405,728.301 753.5,709C 708.729,693.156 672.896,704.656 646,743.5C 636.239,761.321 632.739,780.321 635.5,800.5C 551.833,800.5 468.167,800.5 384.5,800.5C 388.718,758.758 372.385,728.258 335.5,709C 296.608,694.266 263.108,702.1 235,732.5C 219.788,752.68 213.955,775.346 217.5,800.5C 186.498,800.667 155.498,800.5 124.5,800C 114.925,797.423 109.091,791.257 107,781.5C 105.234,769.702 109.4,760.702 119.5,754.5C 122.628,708.746 141.295,670.912 175.5,641C 198.026,624.577 223.026,613.243 250.5,607C 274.755,575.235 304.088,549.402 338.5,529.5C 325.642,546.581 318.309,565.914 316.5,587.5C 311.352,593.763 306.186,600.096 301,606.5C 299.542,610.781 300.708,613.947 304.5,616C 308.152,616.499 311.818,616.665 315.5,616.5C 328.5,616.5 341.5,616.5 354.5,616.5C 387.833,616.5 421.167,616.5 454.5,616.5C 456.167,616.5 457.833,616.5 459.5,616.5C 466.167,616.5 472.833,616.5 479.5,616.5C 485.709,616.484 489.543,613.484 491,607.5C 491.667,586.167 491.667,564.833 491,543.5C 489.407,539.572 486.573,537.072 482.5,536C 476.843,535.501 471.176,535.334 465.5,535.5C 461.806,529.806 457.139,525.139 451.5,521.5C 462.346,516.647 471.013,509.313 477.5,499.5 Z"/></g>
<g><path style="opacity:1" fill="#e98f44" d="M 684.5,585.5 C 687.152,594.464 691.652,602.464 698,609.5C 698.825,611.701 698.325,613.534 696.5,615C 682.264,616.466 667.931,616.966 653.5,616.5C 653.334,612.486 653.501,608.486 654,604.5C 654.561,605.022 655.228,605.355 656,605.5C 666.337,599.924 675.837,593.258 684.5,585.5 Z"/></g>
<g><path style="opacity:1" fill="#b43e06" d="M 360.5,567.5 C 362.39,567.297 363.89,567.963 365,569.5C 364.736,584.818 364.569,600.152 364.5,615.5C 362.833,615.5 361.167,615.5 359.5,615.5C 359.833,599.5 360.167,583.5 360.5,567.5 Z"/></g>
<g><path style="opacity:1" fill="#e48840" d="M 518.5,594.5 C 531.5,594.5 544.5,594.5 557.5,594.5C 557.5,601.833 557.5,609.167 557.5,616.5C 546.162,616.667 534.828,616.5 523.5,616C 522.016,615.338 520.683,614.504 519.5,613.5C 518.628,607.211 518.295,600.878 518.5,594.5 Z"/></g>
<g><path style="opacity:1" fill="#2e1e15" d="M 519.5,568.5 C 520.455,576.336 520.455,584.336 519.5,592.5C 532.167,592.5 544.833,592.5 557.5,592.5C 557.334,585.825 557.5,579.158 558,572.5C 559.563,567.746 561.563,567.413 564,571.5C 564.5,586.163 564.667,600.83 564.5,615.5C 562.585,615.216 560.919,615.549 559.5,616.5C 558.833,616.5 558.167,616.5 557.5,616.5C 557.5,609.167 557.5,601.833 557.5,594.5C 544.5,594.5 531.5,594.5 518.5,594.5C 518.255,585.792 518.589,577.126 519.5,568.5 Z"/></g>
<g><path style="opacity:1" fill="#fab574" d="M 316.5,587.5 C 329.51,589.085 342.51,590.751 355.5,592.5C 354.977,600.49 354.644,608.49 354.5,616.5C 341.5,616.5 328.5,616.5 315.5,616.5C 313.985,614.497 313.319,612.163 313.5,609.5C 314.315,602.129 315.315,594.795 316.5,587.5 Z"/></g>
<g><path style="opacity:1" fill="#fce59d" d="M 316.5,587.5 C 315.315,594.795 314.315,602.129 313.5,609.5C 313.319,612.163 313.985,614.497 315.5,616.5C 311.818,616.665 308.152,616.499 304.5,616C 300.708,613.947 299.542,610.781 301,606.5C 306.186,600.096 311.352,593.763 316.5,587.5 Z"/></g>
<g><path style="opacity:1" fill="#b73f06" d="M 459.5,597.5 C 459.5,603.833 459.5,610.167 459.5,616.5C 457.833,616.5 456.167,616.5 454.5,616.5C 454.81,601.297 454.476,586.131 453.5,571C 454.333,568.5 455.833,568 458,569.5C 459.316,578.782 459.816,588.116 459.5,597.5 Z"/></g>
<g><path style="opacity:1" fill="#fbb877" d="M 480.5,590.5 C 482.145,598.052 482.645,605.718 482,613.5C 481.302,614.691 480.469,615.691 479.5,616.5C 472.833,616.5 466.167,616.5 459.5,616.5C 459.5,610.167 459.5,603.833 459.5,597.5C 460.461,595.735 460.795,593.735 460.5,591.5C 467.148,590.861 473.814,590.527 480.5,590.5 Z"/></g>
<g><path style="opacity:1" fill="#fde296" d="M 465.5,535.5 C 471.176,535.334 476.843,535.501 482.5,536C 486.573,537.072 489.407,539.572 491,543.5C 491.667,564.833 491.667,586.167 491,607.5C 489.543,613.484 485.709,616.484 479.5,616.5C 480.469,615.691 481.302,614.691 482,613.5C 482.645,605.718 482.145,598.052 480.5,590.5C 480.167,570.803 475.167,552.47 465.5,535.5 Z"/></g>
<g><path style="opacity:1" fill="#fcdd8b" d="M 881.5,694.5 C 888.01,703.699 891.343,714.032 891.5,725.5C 890.566,729.934 888.232,733.434 884.5,736C 864.772,741.532 851.272,734.699 844,715.5C 840.027,704.091 842.861,694.925 852.5,688C 863.506,684.898 873.172,687.064 881.5,694.5 Z"/></g>
<g><path style="opacity:1" fill="#342d26" d="M 384.5,800.5 C 377.607,832.952 358.607,854.952 327.5,866.5C 308.687,872.103 290.021,871.77 271.5,865.5C 241.856,853.521 223.856,831.854 217.5,800.5C 213.955,775.346 219.788,752.68 235,732.5C 263.108,702.1 296.608,694.266 335.5,709C 372.385,728.258 388.718,758.758 384.5,800.5 Z"/></g>
<g><path style="opacity:1" fill="#342d26" d="M 802.5,800.5 C 795.62,833.042 776.62,855.042 745.5,866.5C 725.895,872.399 706.562,871.732 687.5,864.5C 659.503,851.836 642.169,830.502 635.5,800.5C 632.739,780.321 636.239,761.321 646,743.5C 672.896,704.656 708.729,693.156 753.5,709C 790.405,728.301 806.738,758.801 802.5,800.5 Z"/></g>
<g><path style="opacity:1" fill="#918a82" d="M 708.5,743.5 C 733.095,740.31 750.262,749.977 760,772.5C 764.52,791.265 759.687,807.099 745.5,820C 722.945,833.678 702.778,830.845 685,811.5C 672.117,790.302 674.284,770.802 691.5,753C 696.938,749.284 702.605,746.118 708.5,743.5 Z"/></g>
<g><path style="opacity:1" fill="#918a83" d="M 291.5,743.5 C 316.434,740.979 333.267,751.312 342,774.5C 345.847,793.963 340.014,809.796 324.5,822C 297.842,834.965 277.009,828.799 262,803.5C 253.461,774.247 263.294,754.247 291.5,743.5 Z"/></g>
<g><path style="opacity:1" fill="#fee5ac" d="M 384.5,800.5 C 468.167,800.5 551.833,800.5 635.5,800.5C 642.169,830.502 659.503,851.836 687.5,864.5C 567.646,865.174 447.646,865.841 327.5,866.5C 358.607,854.952 377.607,832.952 384.5,800.5 Z"/></g>
<g><path style="opacity:1" fill="#f6ca7a" d="M 687.5,864.5 C 706.562,871.732 725.895,872.399 745.5,866.5C 801.834,866.333 858.168,866.5 914.5,867C 918.457,870.296 918.457,873.463 914.5,876.5C 646.745,876.498 378.745,876.498 110.5,876.5C 108.265,875.714 107.265,874.048 107.5,871.5C 107.39,869.626 108.056,868.126 109.5,867C 163.668,866.833 217.668,866.333 271.5,865.5C 290.021,871.77 308.687,872.103 327.5,866.5C 447.646,865.841 567.646,865.174 687.5,864.5 Z"/></g>
<g><path style="opacity:1" fill="#f3c168" d="M 914.5,876.5 C 646.402,877.833 378.402,877.833 110.5,876.5C 378.745,876.498 646.745,876.498 914.5,876.5 Z"/></g>
</svg>
